<svg width="40" height="40" viewBox="0 0 40 40" fill="none" xmlns="http://www.w3.org/2000/svg">
<path d="M3 27.6774V13H6.57527L9.58603 20.1456L12.5968 13H16.5484V27.6774H12.5968V20.725L10.9032 25.5531H8.45699L6.57527 20.725V27.6774H3Z" fill="white"/>
<path d="M18.2419 27.6774V13H21.8172V24.2012H27.6505L24.2635 27.6774H18.2419Z" fill="white"/>
<path d="M36.6827 16.4762V13H33.4038C32.4573 13 31.4948 13.0906 30.6693 13.5536C29.5829 14.1628 28.215 15.3461 28.215 17.4419C28.215 20.2523 31.2899 21.4217 32.4677 21.7666C32.7668 21.8542 33.0746 21.9185 33.3477 22.0685C33.7135 22.2696 34.1636 22.6438 34.0483 23.2356C33.8601 24.2012 32.9193 24.2012 32.9193 24.2012H29.5322L26.3333 27.6774H32.6407C33.8227 27.6774 35.0391 27.5353 35.9819 26.8226C36.9455 26.0943 37.9999 24.842 37.9999 22.8493C37.9999 20.1073 35.1629 19.0908 33.7288 18.7522C33.1945 18.626 32.5933 18.5896 32.21 18.1966C32.0354 18.0175 31.9143 17.771 31.9784 17.4419C32.0327 17.1635 32.1495 16.9643 32.283 16.8222C32.6188 16.4646 33.1653 16.4762 33.6558 16.4762H36.6827Z" fill="white"/>
</svg>
